<svg xmlns="http://www.w3.org/2000/svg" xmlns:xlink="http://www.w3.org/1999/xlink" viewBox="0 0 193.77 289.42"><defs><style>.cls-1,.cls-5{fill:none;}.cls-2{clip-path:url(#clip-path);}.cls-3{opacity:0.1;}.cls-4{clip-path:url(#clip-path-2);}.cls-5{stroke:#1d1d1b;stroke-width:5px;}.cls-6{fill:#010101;}.cls-7{font-size:5px;}.cls-10,.cls-7,.cls-8,.cls-9{fill:#1d1d1b;}.cls-7,.cls-8,.cls-9{font-family:Inconsolata-Regular, Inconsolata;}.cls-8{font-size:3px;}.cls-9{font-size:7px;}.cls-10{font-size:11px;font-family:Inconsolata-Bold, Inconsolata;font-weight:700;}</style><clipPath id="clip-path" transform="translate(-5.63 -7)"><rect class="cls-1" x="5.63" y="7" width="193.77" height="289.42"/></clipPath><clipPath id="clip-path-2" transform="translate(-5.63 -7)"><rect class="cls-1" width="204.74" height="296.42"/></clipPath></defs><title>Ativo 46</title><g id="Camada_2" data-name="Camada 2"><g id="Camada_3" data-name="Camada 3"><g class="cls-2"><g class="cls-3"><g class="cls-4"><rect class="cls-5" x="5.87" y="2.5" width="181.74" height="283.42"/></g></g><path class="cls-6" d="M154.25,114.52H56.46V60.19h72a2.72,2.72,0,0,0,0-5.43h-72V46.61a8.17,8.17,0,0,1,8.15-8.15h81.5a8.17,8.17,0,0,1,8.15,8.15Zm0,29.88a8.17,8.17,0,0,1-8.15,8.15H66c-4.35,0-9.51-3.67-9.51-8.15V120h97.8Zm-72.53,19L84.44,158h42.24l2.85,5.43ZM146.1,33H64.61A13.62,13.62,0,0,0,51,46.61v97.79C51,152.15,58.9,158,66,158H78.32l-2.72,5.43H63.25a2.72,2.72,0,1,0,0,5.43h9.64l-4.07,8A2.72,2.72,0,0,0,70,180.54a4,4,0,0,0,1.22.27,2.86,2.86,0,0,0,2.44-1.49L79,168.85h53.24l5.3,10.46a2.86,2.86,0,0,0,2.44,1.49,4,4,0,0,0,1.22-.27,2.72,2.72,0,0,0,1.22-3.67l-4.07-8h9.1a2.72,2.72,0,1,0,0-5.43H135.64L132.93,158H146.1a13.62,13.62,0,0,0,13.58-13.58V46.61A13.62,13.62,0,0,0,146.1,33" transform="translate(-5.63 -7)"/><path class="cls-6" d="M144.74,54.76h-4.08a2.72,2.72,0,0,0,0,5.43h4.08a2.72,2.72,0,1,0,0-5.43" transform="translate(-5.63 -7)"/><path class="cls-6" d="M78.19,129.46a2.72,2.72,0,1,1-2.72,2.72,2.72,2.72,0,0,1,2.72-2.72m0,10.87A8.15,8.15,0,1,0,70,132.18a8.17,8.17,0,0,0,8.15,8.15" transform="translate(-5.63 -7)"/><path class="cls-6" d="M132.52,129.46a2.72,2.72,0,1,1-2.72,2.72,2.72,2.72,0,0,1,2.72-2.72m0,10.87a8.15,8.15,0,1,0-8.15-8.15,8.17,8.17,0,0,0,8.15,8.15" transform="translate(-5.63 -7)"/></g><text class="cls-7" transform="translate(80.56 194.26)">If you can read this, </text><text class="cls-8" transform="translate(93.31 208.26)">you are too close.</text><text class="cls-9" transform="translate(101.77 236.26)">Beware of train tracks</text><text class="cls-10" transform="translate(28.84 264.26)">National Railway</text><rect class="cls-1" width="193.77" height="289.42"/></g></g></svg>